<svg xmlns="http://www.w3.org/2000/svg" class="logo" height="100%" width="100%" viewBox="0 0 39.618 31.68"><path class="bg" fill="none" d="M0 0h39.618v31.68H0z"/><path class="fg" d="M19.943 8.713a5.678 6.64 0 0 0-2.973.887 5.678 6.64 0 0 0-2.84 5.75h1.025v6.616c0 .556 1.921 1.003 4.308 1.003h.691c2.387 0 4.31-.447 4.31-1.003V15.35h1.023a5.678 6.64 0 0 0-2.839-5.75 5.678 6.64 0 0 0-2.705-.887zm-.027 1.208a4.547 4.27 0 0 1 2.166.57 4.547 4.27 0 0 1 2.274 3.698h-9.094a4.547 4.27 0 0 1 2.273-3.697 4.547 4.27 0 0 1 2.381-.57zM0 0v31.68h39.618V0zm23.252 2.798c3.687.003 7.493.273 9.905 2.167 3.216 2.526 2.867 7.088 2.909 10.757.042 3.668.494 8.224-2.663 10.796-3.158 2.573-8.86 2.294-13.446 2.328-4.585.033-10.28.395-13.496-2.13-3.216-2.527-2.867-7.089-2.91-10.757C3.51 12.29 3.059 7.734 6.216 5.16c3.158-2.572 8.86-2.293 13.446-2.327 1.146-.008 2.362-.037 3.59-.036z" fill="none"/></svg>
