<svg xmlns="http://www.w3.org/2000/svg" class="logo" height="100%" width="100%" viewBox="0 0 39.618 31.68"><path d="M0 0h39.618v31.68H0z" class="bg" fill="none"/><path d="M9.653 9.14a.631.631 0 0 0-.63.63v12.145c0 .348.282.63.63.63h20.312a.63.63 0 0 0 .63-.63V9.77a.63.63 0 0 0-.63-.63 9972.21 9972.21 0 0 0-20.312 0zm5.184.577a.417.417 0 1 1 0 0zm9.805 0a.417.417 0 1 1 0 0zm-7.7.35a.417.417 0 1 1 0 .833.417.417 0 0 1 0-.834zm5.574 0a.417.417 0 1 1-.001.833.417.417 0 0 1 0-.834zm-11.719 2.745h17.825c.249 0 .45.207.45.462v7.359a.457.457 0 0 1-.45.462H10.797a.457.457 0 0 1-.45-.462v-7.36c0-.254.202-.46.45-.46zm1.453 1.373c-.304 0-.542.157-.542.357v3.564c0 .2.238.357.542.357h14.92c.303 0 .541-.157.541-.357v-3.564c0-.2-.238-.357-.542-.357zm5.63.18h3.426a3.468 3.468 0 0 0-.614 1.973c0 .72.219 1.389.594 1.945h-3.384a3.246 3.246 0 0 0 .645-1.945c0-.74-.249-1.425-.666-1.973zm-2.596.06c1.054 0 1.913.858 1.913 1.913a1.915 1.915 0 0 1-2.063 1.907 1.915 1.915 0 0 1-1.763-1.907 1.915 1.915 0 0 1 1.913-1.913zm8.896.225c.478 0 .91.2 1.216.52a1.682 1.682 0 0 1 0 2.337c-.307.32-.738.52-1.216.52a1.69 1.69 0 0 1-1.688-1.689c0-.93.758-1.688 1.688-1.688zm-7.935.937a1.23 1.23 0 0 0-1.723-.225 1.23 1.23 0 0 0-.225 1.723 1.23 1.23 0 0 0 1.724.225 1.23 1.23 0 0 0 .224-1.723zm7.935-.478a1.23 1.23 0 0 0-1.228 1.23 1.23 1.23 0 0 0 1.228 1.228 1.23 1.23 0 0 0 1.216-1.405 1.23 1.23 0 0 0-1.216-1.053zm-8.149.642a.952.952 0 0 1 .19.455l-.168.023a.793.793 0 0 1-.051.405l.156.064a.952.952 0 0 1-.3.396l-.106-.133a.79.79 0 0 1-.376.157l.022.167a.965.965 0 0 1-.492-.063l.064-.156a.789.789 0 0 1-.324-.248l-.134.103a.952.952 0 0 1-.19-.457l.167-.023a.793.793 0 0 1 .052-.405l-.156-.064a.951.951 0 0 1 .3-.395l.105.133a.79.79 0 0 1 .375-.156l-.022-.167a.964.964 0 0 1 .491.063l-.064.155a.785.785 0 0 1 .325.248l.134-.104zm8.15-.372c.173 0 .335.047.475.128l-.083.146c.12.069.22.168.29.288l.145-.085c.082.141.13.305.131.48l-.17.002a.788.788 0 0 1-.105.394l.146.085a.965.965 0 0 1-.35.35l-.085-.146a.788.788 0 0 1-.394.106v.17a.951.951 0 0 1-.478-.129l.084-.146a.795.795 0 0 1-.29-.288l-.145.084a.951.951 0 0 1-.13-.479h.17c0-.139.035-.275.104-.394l-.146-.084a.965.965 0 0 1 .35-.351l.084.146a.789.789 0 0 1 .394-.107v-.17zM0 0v31.68h39.618V0zm23.252 2.798c3.687.003 7.493.273 9.905 2.167 3.216 2.526 2.867 7.088 2.909 10.757.042 3.668.494 8.224-2.663 10.796-3.158 2.573-8.86 2.294-13.446 2.328-4.585.033-10.28.395-13.496-2.13-3.216-2.527-2.867-7.089-2.91-10.757C3.51 12.29 3.059 7.734 6.216 5.16c3.158-2.572 8.86-2.293 13.446-2.327 1.146-.008 2.362-.037 3.59-.036z" class="fg" fill="none"/></svg>
